<?xml version="1.0" encoding="utf-8"?>
<!-- Generator: Adobe Illustrator 15.0.0, SVG Export Plug-In . SVG Version: 6.00 Build 0)  -->
<!DOCTYPE svg PUBLIC "-//W3C//DTD SVG 1.1//EN" "http://www.w3.org/Graphics/SVG/1.1/DTD/svg11.dtd">
<svg version="1.1"  xmlns="http://www.w3.org/2000/svg" xmlns:xlink="http://www.w3.org/1999/xlink" x="0px" y="0px"
	 width="48px" height="48px" viewBox="0 0 48 48" enable-background="new 0 0 48 48" xml:space="preserve">
<g>
	<circle fill="#DB8509" cx="24" cy="38.001" r="4"/>
	<path fill="#DB8509" d="M26,11c0,1.104-0.896,2-2,2l0,0c-1.104,0-2-0.896-2-2V7c0-1.104,0.896-2,2-2l0,0c1.104,0,2,0.896,2,2V11z"
		/>
</g>
<path fill="#BC6F0A" d="M27.887,38.91C27.955,38.617,28,38.314,28,38.001c0-0.383-0.07-0.746-0.172-1.097
	C26.609,36.965,25.333,37,24,37s-2.609-0.035-3.829-0.096C20.071,37.255,20,37.618,20,38.001c0,0.313,0.045,0.616,0.113,0.909
	C21.584,38.979,22.926,39,24,39S26.416,38.979,27.887,38.91z"/>
<g>
	<path fill="#FFC107" d="M33,33V16.801c0-4.97-4.029-9-9-9s-9,4.03-9,9V33H33z"/>
	<path fill="#FFC107" d="M41,33c0,2.209-7.059,4-17,4S7,35.209,7,33s7.059-4,17-4S41,30.791,41,33z"/>
	<path fill="#FFC107" d="M7,33c0-1.999,8-9.001,8-12s18-3.001,18,0s8,9.999,8,12S7,34.999,7,33z"/>
</g>
<path fill="#FFE082" d="M9.275,29.424c-0.491,0.593-0.929,1.146-1.295,1.65c1.622,0.655,8.15,3.062,16.562,3.062
	c4.746,0,10.089-0.78,15.476-3.064c-0.362-0.499-0.796-1.046-1.281-1.632C25.699,34.724,12.698,30.68,9.275,29.424z"/>
</svg>
