<?xml version="1.0" encoding="iso-8859-1"?>
<!-- Generator: Adobe Illustrator 21.1.0, SVG Export Plug-In . SVG Version: 6.00 Build 0)  -->
<svg xmlns="http://www.w3.org/2000/svg" xmlns:xlink="http://www.w3.org/1999/xlink" version="1.1" x="0px" y="0px" viewBox="0 0 48 48" style="enable-background:new 0 0 48 48;" xml:space="preserve">
<g id="Layer_1">
	<g>
		<path style="fill:#512DA8;" d="M9,40.5c-2.481,0-4.5-2.019-4.5-4.5V17c0-2.481,2.019-4.5,4.5-4.5h4.924l0.535-2.456    C14.905,7.991,16.754,6.5,18.856,6.5h10.201c2.102,0,3.951,1.491,4.398,3.544l0.533,2.456H39c2.481,0,4.5,2.019,4.5,4.5v19    c0,2.481-2.019,4.5-4.5,4.5H9z"/>
		<path style="fill:#512DA8;" d="M29.057,7c1.868,0,3.512,1.325,3.909,3.15l0.448,2.062L33.585,13h0.806H39c2.206,0,4,1.794,4,4v19    c0,2.206-1.794,4-4,4H9c-2.206,0-4-1.794-4-4V17c0-2.206,1.794-4,4-4h4.522h0.806l0.171-0.788l0.448-2.062    C15.344,8.325,16.988,7,18.856,7H29.057 M29.057,6H18.856c-2.352,0-4.386,1.639-4.886,3.938L13.522,12H9c-2.761,0-5,2.239-5,5v19    c0,2.761,2.239,5,5,5h30c2.761,0,5-2.239,5-5V17c0-2.761-2.239-5-5-5h-4.609l-0.448-2.062C33.443,7.639,31.409,6,29.057,6    L29.057,6z"/>
	</g>
	<circle style="fill:none;stroke:#B388FF;stroke-width:3;stroke-miterlimit:10;" cx="24" cy="26" r="9"/>
</g>
<g id="Layer_2">
</g>
</svg>
