<?xml version="1.0" encoding="iso-8859-1"?>
<!-- Generator: Adobe Illustrator 21.0.2, SVG Export Plug-In . SVG Version: 6.00 Build 0)  -->
<svg xmlns="http://www.w3.org/2000/svg" xmlns:xlink="http://www.w3.org/1999/xlink" version="1.1" id="Layer_1" x="0px" y="0px" viewBox="0 0 48 48" style="enable-background:new 0 0 48 48;" xml:space="preserve">
<path style="fill:#1565C0;" d="M25,22h13l6,6V11c0-2.199-1.801-4-4-4H25c-2.199,0-4,1.801-4,4v7C21,20.199,22.801,22,25,22z"/>
<path style="fill:#2196F3;" d="M23,19H10l-6,6V8c0-2.199,1.801-4,4-4h15c2.199,0,4,1.801,4,4v7C27,17.199,25.199,19,23,19z"/>
<path style="fill:#64B5F6;" d="M44,42c0,0-2.199-4-8-4s-8,4-8,4v2h16V42z"/>
<g>
	<path style="fill:#FF9800;" d="M38.001,36h-4v3c0,0,0.328,1,1.959,1s2.041-1,2.041-1V36z"/>
	<circle style="fill:#FF9800;" cx="39.5" cy="33.5" r="1.5"/>
	<circle style="fill:#FF9800;" cx="32.5" cy="33.5" r="1.5"/>
	<path style="fill:#FFB74D;" d="M40,30.216C40,28.01,38.206,28,36,28s-4,0.01-4,2.216c0,0.347,0,3.436,0,3.784c0,2.206,1.794,4,4,4   s4-1.794,4-4C40,33.653,40,30.564,40,30.216z"/>
	<path style="fill:#424242;" d="M35.781,26C33.344,26.219,31,27.93,31,31.574V33l1,1v-3l6.31-2.201L40,31v3l1-1v-1.203   c0-2.414-0.135-4.205-3-4.797l-0.485-1H35.781z"/>
</g>
<path style="fill:#BF360C;" d="M8,30.95h8v8.1H8V30.95z"/>
<path style="fill:#7CB342;" d="M20,42c0,0-2.199-4-8-4s-8,4-8,4v2h16V42z"/>
<g>
	<path style="fill:#FF9800;" d="M14.001,36h-4v3c0,0,0.328,1,1.959,1s2.041-1,2.041-1V36z"/>
	<path style="fill:#FFB74D;" d="M16,30.216C16,28.01,14.206,28,12,28s-4,0.01-4,2.216C8,30.563,8,33.652,8,34c0,2.206,1.794,4,4,4   s4-1.794,4-4C16,33.653,16,30.564,16,30.216z"/>
</g>
<path style="fill:#FF5722;" d="M12,26c-4,0-7,1.356-7,10.313l3,2.43V33l5.469-3L16,33v5.742l3-2.43c0-1.8,0-9.313-5-9.313l-1-1H12z"/>
</svg>
