<svg xmlns="http://www.w3.org/2000/svg" xmlns:xlink="http://www.w3.org/1999/xlink" width="19" height="18" viewBox="0 0 19 18">
  <defs>
    <filter id="Rectangle_497" x="0" y="0" width="19" height="18" filterUnits="userSpaceOnUse">
      <feOffset input="SourceAlpha"/>
      <feGaussianBlur stdDeviation="1" result="blur"/>
      <feFlood flood-opacity="0.161"/>
      <feComposite operator="in" in2="blur"/>
      <feComposite in="SourceGraphic"/>
    </filter>
  </defs>
  <g id="Component_59_1" data-name="Component 59 – 1" transform="translate(3 3)">
    <g id="Component_33_1" data-name="Component 33 – 1">
      <g transform="matrix(1, 0, 0, 1, -3, -3)" filter="url(#Rectangle_497)">
        <g id="Rectangle_497-2" data-name="Rectangle 497" transform="translate(3 3)" fill="#fff" stroke="#e92d2d" stroke-width="1">
          <rect width="13" height="12" rx="2" stroke="none"/>
          <rect x="0.5" y="0.5" width="12" height="11" rx="1.5" fill="none"/>
        </g>
      </g>
    </g>
    <path id="Icon_ionic-ios-close" data-name="Icon ionic-ios-close" d="M14.637,14l1.936-1.936a.454.454,0,0,0-.641-.641L14,13.356,12.06,11.421a.454.454,0,1,0-.641.641L13.354,14l-1.936,1.936a.454.454,0,1,0,.641.641L14,14.639l1.936,1.936a.454.454,0,0,0,.641-.641Z" transform="translate(-7.281 -8.286)" fill="#e92d2d"/>
  </g>
</svg>
