<?xml version="1.0" encoding="utf-8"?>
<!-- Generator: Adobe Illustrator 15.0.0, SVG Export Plug-In . SVG Version: 6.00 Build 0)  -->
<!DOCTYPE svg PUBLIC "-//W3C//DTD SVG 1.1//EN" "http://www.w3.org/Graphics/SVG/1.1/DTD/svg11.dtd">
<svg version="1.1"  xmlns="http://www.w3.org/2000/svg" xmlns:xlink="http://www.w3.org/1999/xlink" x="0px" y="0px"
	 width="48px" height="48px" viewBox="0 0 48 48" enable-background="new 0 0 48 48" xml:space="preserve">
<path fill="#E53935" d="M42,20l-18-9.048L6,20v-5.048l18-9l0,0l18,9V20z"/>
<g>
	<rect x="9" y="21" fill="#D32F2F" width="30" height="19"/>
	<path fill="#D32F2F" d="M20,37.999C20,35.793,21.786,34,24,34s4,1.793,4,3.999C28,40.207,26.214,42,24,42S20,40.207,20,37.999z"/>
</g>
<path fill="#4C0808" d="M22,38.002C22,36.9,22.894,36,24,36s2,0.9,2,2.002C26,39.107,25.106,40,24,40S22,39.107,22,38.002z"/>
<polygon fill="#BCAAA4" points="36,19 25,21 23,21 12,19 11,22.574 11,38 37,38 37,22.574 "/>
<g>
	<path fill="#E5E2E1" d="M37,19c0,0-12-0.146-12,2c0,2.143,0,17,0,17c0-2.145,12-2,12-2V19z"/>
	<path fill="#E5E2E1" d="M11,19c0,0,12-0.146,12,2c0,2.143,0,17,0,17c0-2.145-12-2-12-2V19z"/>
</g>
</svg>
