<?xml version="1.0" encoding="utf-8"?>
<!-- Generator: Adobe Illustrator 15.0.0, SVG Export Plug-In . SVG Version: 6.00 Build 0)  -->
<!DOCTYPE svg PUBLIC "-//W3C//DTD SVG 1.1//EN" "http://www.w3.org/Graphics/SVG/1.1/DTD/svg11.dtd">
<svg version="1.1"  xmlns="http://www.w3.org/2000/svg" xmlns:xlink="http://www.w3.org/1999/xlink" x="0px" y="0px"
	 width="48px" height="48px" viewBox="0 0 48 48" enable-background="new 0 0 48 48" xml:space="preserve">
<g>
	<polygon fill="#90CAF9" points="45,30.234 45,32.913 24,40 3,32.943 3,30.086 	"/>
	<circle fill="#90CAF9" cx="3.5" cy="31.5" r="1.5"/>
	<circle fill="#90CAF9" cx="44.5" cy="31.5" r="1.5"/>
	<polygon fill="#90CAF9" points="45,24.087 45,26.913 24,34 3,26.913 3,24.086 	"/>
	<circle fill="#90CAF9" cx="3.5" cy="25.5" r="1.5"/>
	<circle fill="#90CAF9" cx="44.5" cy="25.5" r="1.5"/>
	<polygon fill="#90CAF9" points="45,18.087 45,20.914 24,28 3,20.914 3,18.087 	"/>
	<circle fill="#90CAF9" cx="3.5" cy="19.5" r="1.5"/>
	<circle fill="#90CAF9" cx="44.5" cy="19.5" r="1.5"/>
</g>
<g>
	<path fill="#42A5F5" d="M46,22.5c0-1.359-1.236-1.471-1.313-1.481L24,28L3.312,21.019C2.573,21.112,2,21.736,2,22.5
		c0,0.653,0.42,1.203,1.003,1.409v0.005L24,31l21-7.087v-0.005C45.581,23.701,46,23.152,46,22.5z"/>
	<circle fill="#42A5F5" cx="44.5" cy="16.5" r="1.5"/>
	<polyline fill="#42A5F5" points="45,15.087 45,17.914 24,25 3,17.914 3,15.086 	"/>
	<circle fill="#42A5F5" cx="3.5" cy="16.5" r="1.5"/>
	<polygon fill="#42A5F5" points="45,15.087 24,22 3,15.086 24,8 	"/>
	<path fill="#42A5F5" d="M46,28.5c0-1.291-1.235-1.472-1.313-1.481L24,34L4.561,27.439l-1.248-0.421C2.574,27.111,2,27.735,2,28.5
		c0,0.652,0.419,1.201,1,1.408v0.005L24,37l21-7.087v-0.005C45.581,29.701,46,29.152,46,28.5z"/>
</g>
</svg>
