<?xml version="1.0" encoding="iso-8859-1"?>
<!-- Generator: Adobe Illustrator 19.1.1, SVG Export Plug-In . SVG Version: 6.00 Build 0)  -->
<svg version="1.1" id="Layer_1" xmlns="http://www.w3.org/2000/svg" xmlns:xlink="http://www.w3.org/1999/xlink" x="0px" y="0px"
	 viewBox="0 0 48 48" style="enable-background:new 0 0 48 48;" xml:space="preserve">
<rect x="9.94" y="18.25" style="fill:#4E342E;" width="12" height="13.5"/>
<path style="fill:#4FC3F7;" d="M19.75,31L19.75,31L16,31.77L12.25,31c0,0-8.25,1.527-8.25,10h24C28,32.559,19.75,31,19.75,31"/>
<path style="fill:#2196F3;" d="M40,20h-8l-4,4V10c0-2.209,1.791-4,4-4h8c2.209,0,4,1.791,4,4v6C44,18.208,42.209,20,40,20"/>
<path style="fill:#EF8D3C;" d="M15.94,34.75c-1.439,0-3.5-3.75-3.5-3.75v-5h7v5C19.44,31,17.379,34.75,15.94,34.75"/>
<path style="fill:#FFAA45;" d="M22.94,23c0,3.728-3.272,7-7,7c-3.729,0-7-3.272-7-7v-6c0-3.728,14-5.726,14,0V23z M15.94,36
	c2.901,0,3.5-5,3.5-5s-1.864,3-3.5,3s-3.5-3-3.5-3S13.04,36,15.94,36"/>
<path style="fill:#01579B;" d="M15.94,38c3.562,0,5.074-3.955,5.446-6.489C20.429,31.135,19.75,31,19.75,31l-0.319,0.065
	C19.35,31.642,18.649,36,15.94,36c-2.771,0-3.44-4.552-3.495-4.96L12.25,31c0,0-0.732,0.141-1.751,0.55
	C10.881,34.085,12.396,38,15.94,38z"/>
<path style="fill:#784719;" d="M17.94,22c0-0.551,0.448-1,1-1s1,0.449,1,1s-0.448,1-1,1S17.94,22.551,17.94,22 M11.94,22
	c0,0.551,0.448,1,1,1s1-0.449,1-1s-0.448-1-1-1S11.94,21.449,11.94,22"/>
<path style="fill:#795548;" d="M15.94,11c-4.556,0-11,2.089-11,17l5,3.75V21l9-5l3,4v12l5-5c0-3.019-0.255-14.5-8-14.5l-1-1.5H15.94
	z"/>
</svg>
