<?xml version="1.0"?>
<svg xmlns="http://www.w3.org/2000/svg" id="Layer_1" enable-background="new 0 0 512 512" height="512px" viewBox="0 0 512 512" width="512px"><g><g><path d="m493.044 467.036h-86.413v-79.261c0-4.143-3.357-7.5-7.5-7.5s-7.5 3.357-7.5 7.5v79.261h-16.543c.912-2.469 1.411-5.136 1.411-7.918v-128.687c0-12.638-10.281-22.919-22.919-22.919h-198.898c-12.638 0-22.919 10.281-22.919 22.919v128.687c0 2.782.499 5.449 1.411 7.918h-16.543v-134.65c0-20.152 13.201-37.747 32.127-42.862l77.229-15.77c.713.775 1.429 1.55 2.153 2.316 7.415 7.899 16.893 12.246 26.658 12.246.061-.001.117-.001.176 0 9.791 0 19.258-4.339 26.65-12.21.644-.682 1.276-1.365 1.905-2.047l75.966 15.47c18.931 5.113 32.135 22.709 32.135 42.865v20.556c0 4.143 3.357 7.5 7.5 7.5s7.5-3.357 7.5-7.5v-20.556c0-21.165-10.972-40.235-28.032-50.768-.02-16.995 3.888-26.708 8.013-36.936 4.836-11.986 9.836-24.381 9.023-47.134-.815-22.839-6.672-34.174-12.336-45.136-5.131-9.93-9.978-19.309-10.673-38.786-.167-4.69-.245-9.604-.32-14.357-.47-29.681-.956-60.371-21.616-80.289-20.654-19.914-51.368-19.312-81.067-18.716-4.758.094-9.678.191-14.378.191-4.902 0-10.044-.115-15.017-.227-29.171-.651-59.331-1.327-79.778 18.128-16.613 15.808-20.1 39.18-21.319 59.957-.242 4.135 2.913 7.684 7.048 7.927 4.129.237 7.684-2.914 7.927-7.048 1.048-17.856 3.85-37.757 16.685-49.969 15.962-15.188 42.973-14.584 69.103-13.999 5.056.113 10.283.23 15.353.23 4.849 0 9.844-.099 14.675-.194 26.646-.533 54.188-1.074 70.361 14.518 16.171 15.591 16.606 43.112 17.028 69.727.076 4.826.155 9.815.328 14.655.815 22.84 6.672 34.175 12.337 45.137 5.13 9.93 9.977 19.308 10.672 38.785.698 19.565-3.499 29.971-7.943 40.986-3.988 9.886-8.084 20.055-8.943 36.077-.209-.058-.414-.124-.624-.18-.14-.037-.281-.07-.423-.1l-75.347-15.345c-.875-5.926-1.12-11.793-.754-17.94 1.284-.875 2.536-1.803 3.747-2.787 33.273-26.898 49.448-50.239 49.448-71.357 0-2.218-.09-4.398-.276-6.578-.457-4.652-.746-23.696-.735-48.517.001-2.933-1.707-5.597-4.372-6.819-2.665-1.221-5.798-.78-8.021 1.133-9.845 8.475-22.418 13.143-35.403 13.143-21.102 0-40.455-12.382-49.306-31.545-1.226-2.655-3.884-4.355-6.809-4.355s-5.583 1.7-6.809 4.355c-8.841 19.142-28.163 31.517-49.237 31.545l-.298-.008c-1.978.027-3.915.757-5.337 2.158-1.421 1.4-2.226 3.31-2.235 5.305-.087 17.472-.351 30.053-.712 33.729-.178 2.026-.268 4.197-.268 6.453 0 21.118 16.168 44.453 49.411 71.323 1.162.945 2.364 1.835 3.593 2.68.338 5.978.068 11.796-.829 17.777l-76.627 15.647c-.141.029-.281.062-.421.099-.163.043-.323.095-.486.14-.649-16.136-4.609-26.405-8.464-36.388-4.306-11.149-8.372-21.681-7.406-41.449.962-19.689 5.942-29.11 11.215-39.084 5.807-10.983 11.811-22.341 12.936-45.361.202-4.138-2.988-7.655-7.125-7.857-4.172-.199-7.655 2.988-7.857 7.125-.962 19.689-5.942 29.11-11.215 39.084-5.807 10.983-11.811 22.341-12.936 45.361-1.121 22.941 3.718 35.47 8.396 47.586 4.006 10.374 7.8 20.224 7.531 37.468-17.082 10.529-28.073 29.611-28.073 50.792v134.651h-82.677c-10.452-.001-18.956 8.496-18.956 18.942 0 14.348 11.684 26.021 26.044 26.021h459.912c14.36 0 26.044-11.673 26.044-26.021 0-10.446-8.504-18.943-18.956-18.943zm-308.056-299.592c0-1.82.071-3.55.203-5.062.433-4.395.636-16.514.729-27.948 19.618-2.051 37.463-12.451 48.963-28.276 12.885 17.73 33.729 28.649 56.114 28.649 11.528 0 22.804-2.883 32.827-8.276.063 13.295.246 30.399.769 35.708.142 1.661.213 3.413.213 5.208 0 15.846-15.173 36.486-43.892 59.703-7.301 5.931-16.499 9.193-25.939 9.193-.028 0-.058 0-.086 0-.026 0-.051 0-.078 0-9.425 0-18.639-3.27-25.966-9.228-28.691-23.192-43.857-43.825-43.857-59.671zm69.794 83.898h.223c5.6 0 11.145-.848 16.443-2.473.089 4.933.535 9.786 1.354 14.704-.687.746-1.387 1.497-2.097 2.249-4.54 4.834-10.125 7.494-15.771 7.494-.031 0-.064 0-.094 0-5.618 0-11.215-2.667-15.776-7.527-.789-.836-1.57-1.676-2.339-2.515.821-4.895 1.284-9.676 1.399-14.48 5.368 1.673 10.987 2.548 16.658 2.548zm231.174 245.658h-459.912c-6.09 0-11.044-4.944-11.044-11.021 0-2.174 1.774-3.942 3.956-3.942h161.436c4.143 0 7.5-3.357 7.5-7.5s-3.357-7.5-7.5-7.5h-25.71c-4.366 0-7.919-3.552-7.919-7.918v-128.688c0-4.366 3.553-7.919 7.919-7.919h198.898c4.366 0 7.919 3.553 7.919 7.919v128.687c0 4.366-3.553 7.918-7.919 7.918h-138.69c-4.143 0-7.5 3.357-7.5 7.5s3.357 7.5 7.5 7.5h278.154c2.182 0 3.956 1.769 3.956 3.942 0 6.078-4.954 11.022-11.044 11.022z" data-original="#000000" class="active-path" data-old_color="#000000" fill="#202095"/><path d="m254.131 419.953c13.893 0 25.194-11.295 25.194-25.178s-11.302-25.178-25.194-25.178-25.194 11.295-25.194 25.178 11.301 25.178 25.194 25.178zm0-35.356c5.621 0 10.194 4.565 10.194 10.178 0 5.612-4.573 10.178-10.194 10.178s-10.194-4.565-10.194-10.178c0-5.612 4.573-10.178 10.194-10.178z" data-original="#000000" class="active-path" data-old_color="#000000" fill="#202095"/></g></g> </svg>
